<svg xmlns:svg="http://www.w3.org/2000/svg" xmlns="http://www.w3.org/2000/svg" width="500" height="500" viewbox="0 0 500 500" version="1"><path d="m262.4 75.8c5.6 2.8 10.3 8.6 12.4 15 1.8 5.6 0.9 18.1-1.8 23.1-1.2 2.2-22.3 26.3-47.1 53.5l-45 49.5 101.6 0.5 101.6 0.5 4.1 2.2c5.3 2.8 13.9 12.3 15.4 16.9 3.5 10.6-4.9 28.6-15.8 34-3.5 1.8-9 1.9-105.1 2.4l-101.4 0.5 48.2 50.5c52.6 55.1 53.4 56.2 53.4 66.9 0 10.3-7.4 20.8-18.3 25.9-7.5 3.5-17.6 3.5-24.3 0.2-6.6-3.3-145.7-145.1-149.3-152.2-3.5-7-5-18.8-3.5-28 2.1-12.5 3.3-14.3 26.4-37.7C248.5 63 235.8 74.7 250.2 73.7c6.3-0.4 7.8-0.2 12.3 2.1z" fill="#000"/></svg>