<?xml version="1.0" encoding="UTF-8" standalone="no"?>
<!-- Created with Inkscape (http://www.inkscape.org/) -->

<svg
   xmlns:dc="http://purl.org/dc/elements/1.1/"
   xmlns:cc="http://creativecommons.org/ns#"
   xmlns:rdf="http://www.w3.org/1999/02/22-rdf-syntax-ns#"
   xmlns:svg="http://www.w3.org/2000/svg"
   xmlns="http://www.w3.org/2000/svg"
   xmlns:sodipodi="http://sodipodi.sourceforge.net/DTD/sodipodi-0.dtd"
   xmlns:inkscape="http://www.inkscape.org/namespaces/inkscape"
   width="500"
   height="500"
   viewbox="0 0 500 500"
   id="svg2"
   sodipodi:version="0.32"
   inkscape:version="0.48.4 r9939"
   sodipodi:modified="true"
   version="1.0"
   sodipodi:docname="backbutton.svg">
  <defs
     id="defs4" />
  <sodipodi:namedview
     id="base"
     pagecolor="#ffffff"
     bordercolor="#666666"
     borderopacity="1.0"
     gridtolerance="10000"
     guidetolerance="10"
     objecttolerance="10"
     inkscape:pageopacity="0.0"
     inkscape:pageshadow="2"
     inkscape:zoom="0.34940017"
     inkscape:cx="531.52183"
     inkscape:cy="15.005104"
     inkscape:document-units="px"
     inkscape:current-layer="layer1"
     width="500px"
     height="500px"
     inkscape:window-width="1024"
     inkscape:window-height="718"
     inkscape:window-x="0"
     inkscape:window-y="0"
     showgrid="false"
     inkscape:window-maximized="0" />
  <metadata
     id="metadata7">
    <rdf:RDF>
      <cc:Work
         rdf:about="">
        <dc:format>image/svg+xml</dc:format>
        <dc:type
           rdf:resource="http://purl.org/dc/dcmitype/StillImage" />
      </cc:Work>
    </rdf:RDF>
  </metadata>
  <g
     inkscape:label="Layer 1"
     inkscape:groupmode="layer"
     id="layer1">
    <path
       style="fill:#000000"
       d="m 262.43825,75.814468 c 5.55216,2.82642 10.31751,8.57698 12.39281,14.95495 1.83366,5.63535 0.88475,18.110162 -1.75855,23.118702 -1.16107,2.2 -22.33976,26.275 -47.06375,53.5 l -44.95273,49.5 101.64809,0.5 101.64809,0.5 4.0968,2.19217 c 5.2911,2.83122 13.90585,12.2708 15.43948,16.91773 3.49745,10.59739 -4.86168,28.59399 -15.80978,34.03731 -3.53317,1.75667 -8.9864,1.87873 -105.11114,2.35279 l -101.38465,0.5 48.16246,50.5 c 52.58682,55.1391 53.44016,56.20802 53.44016,66.94079 0,10.33371 -7.42772,20.84038 -18.28725,25.8677 -7.46058,3.4538 -17.63516,3.53589 -24.32219,0.19622 -6.58029,-3.28635 -145.730694,-145.11121 -149.315324,-152.18515 -3.53725,-6.98042 -5.02788,-18.84428 -3.5171,-27.99243 2.0609,-12.47918 3.32251,-14.28211 26.393344,-37.71788 C 248.47581,63.033538 235.83417,74.720528 250.18489,73.723358 c 6.30653,-0.43822 7.77815,-0.18708 12.25336,2.09111 z"
       id="path2194"
       inkscape:connector-curvature="0"
       sodipodi:nodetypes="sssscccsssscsssssssss" />
  </g>
</svg>
